<svg xmlns="http://www.w3.org/2000/svg" width="413.55450439453125" height="323.6053771972656" viewBox="-111.94344329833984 -56.23224639892578 413.55450439453125 323.6053771972656"><title>Neo4j Graph Visualization</title><desc>Created using Neo4j (http://www.neo4j.com/)</desc><g class="layer relationships"><g class="relationship" transform="translate(272.61105347260064 29.797394014102) rotate(514.2322375438761)"><path class="outline" fill="#A5ABB6" stroke="none" d="M 21.40063509461097,12.933012701892217 L 21.90063509461097,12.06698729810778 A 64.15077404028933 64.15077404028933 0 0 0 23.570883727267823,12.998390987642516 L 23.096920024688146,13.87893536962276 A 65.15077404028933 65.15077404028933 0 0 1 21.40063509461097,12.933012701892217 Z M 81.38847366002906,15.61392477279869 L 80.96771961759326,14.706750017983538 A 64.15077404028933 64.15077404028933 0 0 0 82.69040705024902,13.876333654259271 L 81.34758373914791,11.193643669344231 L 89.1738209002343,11.190194259175867 L 84.48083813171716,17.453253634145995 L 83.13801482061605,14.770563649230953 A 65.15077404028933 65.15077404028933 0 0 1 81.38847366002906,15.61392477279869"/><text text-anchor="middle" pointer-events="none" font-size="8px" fill="#000000" x="52.0526087018339" y="24.132943451958184" transform="rotate(180 52.0526087018339 21.132943451958184)" font-family="sans-serif">PublicTransport</text></g><g class="relationship" transform="translate(172.17159149994546 78.28202700016905) rotate(479.1346220833261)"><path class="outline" fill="#A5ABB6" stroke="none" d="M 25 0.5 L 50.44089075647363 0.5 L 50.44089075647363 -0.5 L 25 -0.5 Z M 68.44089075647364 0.5 L 93.88178151294726 0.5 L 93.88178151294726 3.5 L 100.88178151294726 0 L 93.88178151294726 -3.5 L 93.88178151294726 -0.5 L 68.44089075647364 -0.5 Z"/><text text-anchor="middle" pointer-events="none" font-size="8px" fill="#000000" x="59.44089075647363" y="3" transform="rotate(180 59.44089075647363 0)" font-family="sans-serif">trek</text></g><g class="relationship" transform="translate(110.88437378404375 188.23701716213057) rotate(184.67395291721203)"><path class="outline" fill="#A5ABB6" stroke="none" d="M 25 0.5 L 47.88237799520475 0.5 L 47.88237799520475 -0.5 L 25 -0.5 Z M 65.88237799520475 0.5 L 88.7647559904095 0.5 L 88.7647559904095 3.5 L 95.7647559904095 0 L 88.7647559904095 -3.5 L 88.7647559904095 -0.5 L 65.88237799520475 -0.5 Z"/><text text-anchor="middle" pointer-events="none" font-size="8px" fill="#000000" x="56.88237799520475" y="3" transform="rotate(180 56.88237799520475 0)" font-family="sans-serif">trek</text></g><g class="relationship" transform="translate(272.61105347260064 29.797394014102) rotate(514.2322375438761)"><path class="outline" fill="#A5ABB6" stroke="none" d="M 25 0.5 L 41.764785387263146 0.5 L 41.764785387263146 -0.5 L 25 -0.5 Z M 62.764785387263146 0.5 L 79.52957077452629 0.5 L 79.52957077452629 3.5 L 86.52957077452629 0 L 79.52957077452629 -3.5 L 79.52957077452629 -0.5 L 62.764785387263146 -0.5 Z"/><text text-anchor="middle" pointer-events="none" font-size="8px" fill="#000000" x="52.264785387263146" y="3" transform="rotate(180 52.264785387263146 0)" font-family="sans-serif">road</text></g><g class="relationship" transform="translate(272.61105347260064 29.797394014102) rotate(514.2322375438761)"><path class="outline" fill="#A5ABB6" stroke="none" d="M 21.40063509461097,-12.933012701892217 L 21.90063509461097,-12.06698729810778 A 64.15077404028933 64.15077404028933 0 0 1 43.18830852261624,-19.74801562540948 L 43.0201466609158,-20.733775022153665 A 65.15077404028933 65.15077404028933 0 0 0 21.40063509461097,-12.933012701892217 Z M 61.092821937699014,-21.271690005315946 L 60.98358609318637,-20.277674145143884 A 64.15077404028933 64.15077404028933 0 0 1 82.69040705024902,-13.876333654259271 L 81.34758373914791,-11.193643669344231 L 89.1738209002343,-11.190194259175867 L 84.48083813171716,-17.453253634145995 L 83.13801482061605,-14.770563649230953 A 65.15077404028933 65.15077404028933 0 0 0 61.092821937699014,-21.271690005315946"/><text text-anchor="middle" pointer-events="none" font-size="8px" fill="#000000" x="52.05260870183391" y="-18.132943451958184" transform="rotate(180 52.05260870183391 -21.132943451958184)" font-family="sans-serif">trek</text></g><g class="relationship" transform="translate(172.17159149994546 78.28202700016905) rotate(227.89200260946353)"><path class="outline" fill="#A5ABB6" stroke="none" d="M 24.018736134675446,-6.953439040707552 L 24.277555179777966,-5.987513214418485 A 138.50261270444167 138.50261270444167 0 0 1 49.24175555855234,-10.278648046315084 L 49.16318004742594,-11.275556211118243 A 139.50261270444167 139.50261270444167 0 0 0 24.018736134675446,-6.953439040707552 Z M 67.21356161349314,-11.52664613345354 L 67.16274613174753,-10.52793807460202 A 138.50261270444167 138.50261270444167 0 0 1 92.23664773503288,-6.932858508600794 L 91.54109453288326,-4.0146046226307215 L 99.16183233598797,-5.796276684580056 L 93.16405200456568,-10.823863689894225 L 92.46849880241606,-7.905609803924151 A 139.50261270444167 139.50261270444167 0 0 0 67.21356161349314,-11.52664613345354"/><text text-anchor="middle" pointer-events="none" font-size="8px" fill="#000000" x="58.191259660827846" y="-8.193428598482114" transform="rotate(180 58.191259660827846 -11.193428598482114)" font-family="sans-serif">trek</text></g><g class="relationship" transform="translate(89.37411293202845 -13.326049904627958) rotate(492.59683203851426)"><path class="outline" fill="#A5ABB6" stroke="none" d="M 24.018736134675446,-6.953439040707552 L 24.277555179777966,-5.987513214418485 A 111.31151746843811 111.31151746843811 0 0 1 42.41388821226961,-9.267474405977595 L 42.31800228895868,-10.262866735519466 A 112.31151746843811 112.31151746843811 0 0 0 24.018736134675446,-6.953439040707552 Z M 60.37679613340819,-10.543538578107217 L 60.31189005380166,-9.545647200837067 A 111.31151746843811 111.31151746843811 0 0 1 78.54139371719539,-6.830888008957286 L 77.85536503509047,-3.910380407986286 L 85.47024956647854,-5.716905684207646 L 79.45609862666862,-10.724898143585287 L 78.7700699445637,-7.804390542614287 A 112.31151746843811 112.31151746843811 0 0 0 60.37679613340819,-10.543538578107217"/><text text-anchor="middle" pointer-events="none" font-size="8px" fill="#000000" x="51.349518276850596" y="-7.266859197229863" transform="rotate(180 51.349518276850596 -10.266859197229863)" font-family="sans-serif">trek</text></g><g class="relationship" transform="translate(15.052312361764738 67.50727079674553) rotate(462.47416944750927)"><path class="outline" fill="#A5ABB6" stroke="none" d="M 24.018736134675446,6.953439040707552 L 24.277555179777966,5.987513214418485 A 118.81239009063957 118.81239009063957 0 0 0 44.29212224082833,9.549864417634936 L 44.20175841361833,10.545773238126031 A 119.81239009063957 119.81239009063957 0 0 1 24.018736134675446,6.953439040707552 Z M 62.25800746964916,10.817631110082019 L 62.19766694113792,9.819453259887482 A 118.81239009063957 118.81239009063957 0 0 0 82.31040831596374,6.861265448793475 L 81.62154218594736,3.9414258205062866 L 89.23817847030324,5.740551083469798 L 83.22889648931891,10.754384953176391 L 82.54003035930253,7.834545324889204 A 119.81239009063957 119.81239009063957 0 0 1 62.25800746964916,10.817631110082019"/><text text-anchor="middle" pointer-events="none" font-size="8px" fill="#000000" x="53.23228102731714" y="13.522426181668664" transform="rotate(180 53.23228102731714 10.522426181668664)" font-family="sans-serif">trek</text></g><g class="relationship" transform="translate(15.052312361764738 67.50727079674553) rotate(462.47416944750927)"><path class="outline" fill="#A5ABB6" stroke="none" d="M 24.018736134675446,-6.953439040707552 L 24.277555179777966,-5.987513214418485 A 118.81239009063957 118.81239009063957 0 0 1 31.97696448772446,-7.778318456378415 L 31.782948526728507,-8.759316828894299 A 119.81239009063957 119.81239009063957 0 0 0 24.018736134675446,-6.953439040707552 Z M 74.724970413869,-9.405859012240327 L 74.56057584775124,-8.41946435155377 A 118.81239009063957 118.81239009063957 0 0 1 82.31040831596374,-6.861265448793475 L 81.62154218594736,-3.9414258205062866 L 89.23817847030324,-5.740551083469798 L 83.22889648931891,-10.754384953176391 L 82.54003035930253,-7.834545324889204 A 119.81239009063957 119.81239009063957 0 0 0 74.724970413869,-9.405859012240327"/><text text-anchor="middle" pointer-events="none" font-size="8px" fill="#000000" x="53.23228102731709" y="-7.5224261816686635" transform="rotate(180 53.23228102731709 -10.522426181668664)" font-family="sans-serif">twowheeler</text></g><g class="relationship" transform="translate(89.37411293202845 -13.326049904627958) rotate(492.59683203851426)"><path class="outline" fill="#A5ABB6" stroke="none" d="M 24.018736134675446,6.953439040707552 L 24.277555179777966,5.987513214418485 A 111.31151746843811 111.31151746843811 0 0 0 30.119538490347168,7.385074063851363 L 29.91320263335881,8.3635552921439 A 112.31151746843811 112.31151746843811 0 0 1 24.018736134675446,6.953439040707552 Z M 72.83462867013299,9.03064501231023 L 72.65880046234645,8.04622414634558 A 111.31151746843811 111.31151746843811 0 0 0 78.54139371719539,6.830888008957286 L 77.85536503509047,3.910380407986286 L 85.47024956647854,5.716905684207646 L 79.45609862666862,10.724898143585287 L 78.7700699445637,7.804390542614287 A 112.31151746843811 112.31151746843811 0 0 1 72.83462867013299,9.03064501231023"/><text text-anchor="middle" pointer-events="none" font-size="8px" fill="#000000" x="51.34951827685061" y="13.266859197229863" transform="rotate(180 51.34951827685061 10.266859197229863)" font-family="sans-serif">twowheeler</text></g><g class="relationship" transform="translate(172.17159149994546 78.28202700016905) rotate(227.89200260946353)"><path class="outline" fill="#A5ABB6" stroke="none" d="M 24.018736134675446,6.953439040707552 L 24.277555179777966,5.987513214418485 A 138.50261270444167 138.50261270444167 0 0 0 36.88592985723903,8.743395162282553 L 36.71814429108153,9.729218677821336 A 139.50261270444167 139.50261270444167 0 0 1 24.018736134675446,6.953439040707552 Z M 79.69679436818636,10.327073402965937 L 79.5564950229296,9.33696427073832 A 138.50261270444167 138.50261270444167 0 0 0 92.23664773503288,6.932858508600794 L 91.54109453288326,4.0146046226307215 L 99.16183233598797,5.796276684580056 L 93.16405200456568,10.823863689894225 L 92.46849880241606,7.905609803924151 A 139.50261270444167 139.50261270444167 0 0 1 79.69679436818636,10.327073402965937"/><text text-anchor="middle" pointer-events="none" font-size="8px" fill="#000000" x="58.19125966082788" y="14.193428598482114" transform="rotate(180 58.19125966082788 11.193428598482114)" font-family="sans-serif">twowheeler</text></g><g class="relationship" transform="translate(272.61105347260064 29.797394014102) rotate(451.47662288607756)"><path class="outline" fill="#A5ABB6" stroke="none" d="M 24.018736134675446,-6.953439040707552 L 24.277555179777966,-5.987513214418485 A 108.91151249698221 108.91151249698221 0 0 1 41.81390130008503,-9.176423604742979 L 41.71609687793885,-10.171629259373546 A 109.91151249698221 109.91151249698221 0 0 0 24.018736134675446,-6.953439040707552 Z M 59.77574322756585,-10.455239063170424 L 59.709236869709585,-9.457453061883228 A 108.91151249698221 108.91151249698221 0 0 1 77.33706857849387,-6.820763096129365 L 76.65198563831531,-3.900033501477322 L 84.2662847893784,-5.709024501488053 L 78.25051249873196,-10.71506922233209 L 77.5654295585534,-7.794339627680047 A 109.91151249698221 109.91151249698221 0 0 0 59.77574322756585,-10.455239063170424"/><text text-anchor="middle" pointer-events="none" font-size="8px" fill="#000000" x="50.747935512935115" y="-7.185094105162875" transform="rotate(180 50.747935512935115 -10.185094105162875)" font-family="sans-serif">trek</text></g><g class="relationship" transform="translate(269.8123847299155 138.36702654691481) rotate(479.3907958899947)"><path class="outline" fill="#A5ABB6" stroke="none" d="M 21.40063509461097,-12.933012701892217 L 21.90063509461097,-12.06698729810778 A 67.50149127177082 67.50149127177082 0 0 1 44.81017050550677,-20.234197646712445 L 44.64956353193131,-21.22121608627623 A 68.50149127177082 68.50149127177082 0 0 0 21.40063509461097,-12.933012701892217 Z M 62.72144533919539,-21.744643479554256 L 62.618234964100786,-20.749983930526128 A 67.50149127177082 67.50149127177082 0 0 1 85.96207298567597,-13.922439419949578 L 84.61496086930164,-11.241900491689542 L 92.44118250434512,-11.22593430311947 L 87.7582224741751,-17.496491324296294 L 86.41111035780077,-14.815952396036257 A 68.50149127177082 68.50149127177082 0 0 0 62.72144533919539,-21.744643479554256"/><text text-anchor="middle" pointer-events="none" font-size="8px" fill="#000000" x="53.6826359487741" y="-18.58196730920193" transform="rotate(180 53.6826359487741 -21.58196730920193)" font-family="sans-serif">trek</text></g><g class="relationship" transform="translate(213.48300385975048 238.37313274663165) rotate(206.04303109172395)"><path class="outline" fill="#A5ABB6" stroke="none" d="M 21.40063509461097,12.933012701892217 L 21.90063509461097,12.06698729810778 A 66.8979508691378 66.8979508691378 0 0 0 44.5177789632341,20.146867113347312 L 44.355863218054786,21.133671699606936 A 67.8979508691378 67.8979508691378 0 0 1 21.40063509461097,12.933012701892217 Z M 62.42790199679533,21.65965304098134 L 62.323653026436006,20.665101809430638 A 66.8979508691378 66.8979508691378 0 0 0 85.37243904815102,13.914315371695642 L 84.02608262935576,11.233396798973075 L 91.85230845430289,11.219636823293804 L 87.16758093987804,17.488873468659065 L 85.82122452108277,14.807954895936499 A 67.8979508691378 67.8979508691378 0 0 1 62.42790199679533,21.65965304098134"/><text text-anchor="middle" pointer-events="none" font-size="8px" fill="#000000" x="53.38884340255067" y="24.50108551998781" transform="rotate(180 53.38884340255067 21.50108551998781)" font-family="sans-serif">trek</text></g><g class="relationship" transform="translate(213.48300385975048 238.37313274663165) rotate(206.04303109172395)"><path class="outline" fill="#A5ABB6" stroke="none" d="M 25 0.5 L 43.096648280162135 0.5 L 43.096648280162135 -0.5 L 25 -0.5 Z M 64.09664828016213 0.5 L 82.19329656032427 0.5 L 82.19329656032427 3.5 L 89.19329656032427 0 L 82.19329656032427 -3.5 L 82.19329656032427 -0.5 L 64.09664828016213 -0.5 Z"/><text text-anchor="middle" pointer-events="none" font-size="8px" fill="#000000" x="53.596648280162135" y="3" transform="rotate(180 53.596648280162135 0)" font-family="sans-serif">road</text></g><g class="relationship" transform="translate(213.48300385975048 238.37313274663165) rotate(206.04303109172395)"><path class="outline" fill="#A5ABB6" stroke="none" d="M 21.40063509461097,-12.933012701892217 L 21.90063509461097,-12.06698729810778 A 66.8979508691378 66.8979508691378 0 0 1 32.53006182814505,-17.017304844022718 L 32.188951997357066,-17.957328292315253 A 67.8979508691378 67.8979508691378 0 0 0 21.40063509461097,-12.933012701892217 Z M 74.75895445934825,-19.196315618062343 L 74.47309393363699,-18.238044383056263 A 66.8979508691378 66.8979508691378 0 0 1 85.37243904815102,-13.914315371695642 L 84.02608262935576,-11.233396798973075 L 91.85230845430289,-11.219636823293804 L 87.16758093987804,-17.488873468659065 L 85.82122452108277,-14.807954895936499 A 67.8979508691378 67.8979508691378 0 0 0 74.75895445934825,-19.196315618062343"/><text text-anchor="middle" pointer-events="none" font-size="8px" fill="#000000" x="53.38884340255067" y="-18.50108551998781" transform="rotate(180 53.38884340255067 -21.50108551998781)" font-family="sans-serif">twowheeler</text></g><g class="relationship" transform="translate(269.8123847299155 138.36702654691481) rotate(479.3907958899947)"><path class="outline" fill="#A5ABB6" stroke="none" d="M 25 0.5 L 43.389503453256054 0.5 L 43.389503453256054 -0.5 L 25 -0.5 Z M 64.38950345325605 0.5 L 82.77900690651211 0.5 L 82.77900690651211 3.5 L 89.77900690651211 0 L 82.77900690651211 -3.5 L 82.77900690651211 -0.5 L 64.38950345325605 -0.5 Z"/><text text-anchor="middle" pointer-events="none" font-size="8px" fill="#000000" x="53.889503453256054" y="3" transform="rotate(180 53.889503453256054 0)" font-family="sans-serif">road</text></g><g class="relationship" transform="translate(269.8123847299155 138.36702654691481) rotate(479.3907958899947)"><path class="outline" fill="#A5ABB6" stroke="none" d="M 21.40063509461097,12.933012701892217 L 21.90063509461097,12.06698729810778 A 67.50149127177082 67.50149127177082 0 0 0 32.8146554568113,17.13012165997474 L 32.476341075255775,18.071154804573112 A 68.50149127177082 68.50149127177082 0 0 1 21.40063509461097,12.933012701892217 Z M 75.0565823771137,19.304433383277768 L 74.77330092898245,18.345396563784035 A 67.50149127177082 67.50149127177082 0 0 0 85.96207298567597,13.922439419949578 L 84.61496086930164,11.241900491689542 L 92.44118250434512,11.22593430311947 L 87.7582224741751,17.496491324296294 L 86.41111035780077,14.815952396036257 A 68.50149127177082 68.50149127177082 0 0 1 75.0565823771137,19.304433383277768"/><text text-anchor="middle" pointer-events="none" font-size="8px" fill="#000000" x="53.682635948774085" y="24.58196730920193" transform="rotate(180 53.682635948774085 21.58196730920193)" font-family="sans-serif">twowheeler</text></g><g class="relationship" transform="translate(272.61105347260064 29.797394014102) rotate(451.47662288607756)"><path class="outline" fill="#A5ABB6" stroke="none" d="M 24.018736134675446,6.953439040707552 L 24.277555179777966,5.987513214418485 A 108.91151249698221 108.91151249698221 0 0 0 40.32896239892784,9.020205919636012 L 40.217523615573086,10.013977220069066 A 109.91151249698221 109.91151249698221 0 0 1 24.018736134675446,6.953439040707552 Z M 61.27852785713447,10.344720533923464 L 61.19834882209064,9.347940055413048 A 108.91151249698221 108.91151249698221 0 0 0 77.33706857849387,6.820763096129365 L 76.65198563831531,3.900033501477322 L 84.2662847893784,5.709024501488053 L 78.25051249873196,10.71506922233209 L 77.5654295585534,7.794339627680047 A 109.91151249698221 109.91151249698221 0 0 1 61.27852785713447,10.344720533923464"/><text text-anchor="middle" pointer-events="none" font-size="8px" fill="#000000" x="50.747935512935136" y="13.185094105162875" transform="rotate(180 50.747935512935136 10.185094105162875)" font-family="sans-serif">road</text></g><g class="relationship" transform="translate(89.37411293202845 -13.326049904627958) rotate(186.78516800498193)"><path class="outline" fill="#A5ABB6" stroke="none" d="M 24.018736134675446,-6.953439040707552 L 24.277555179777966,-5.987513214418485 A 127.03384417702725 127.03384417702725 0 0 1 46.35566382809885,-9.856106527335982 L 46.27064184307391,-10.85248560282001 A 128.03384417702725 128.03384417702725 0 0 0 24.018736134675446,-6.953439040707552 Z M 64.32430379186216,-11.115279729284197 L 64.26831882622626,-10.11684811739346 A 127.03384417702725 127.03384417702725 0 0 1 86.44967418884109,-6.892507877094664 L 85.75788986270574,-3.9733582670004046 L 93.37632066675025,-5.764869384461228 L 87.37205329035488,-10.784707357220341 L 86.68026896421954,-7.865557747126083 A 128.03384417702725 128.03384417702725 0 0 0 64.32430379186216,-11.115279729284197"/><text text-anchor="middle" pointer-events="none" font-size="8px" fill="#000000" x="55.30011194786832" y="-7.8025773654869255" transform="rotate(180 55.30011194786832 -10.802577365486925)" font-family="sans-serif">trek</text></g><g class="relationship" transform="translate(-27.504080502452446 -27.232245508444702) rotate(425.8106847273612)"><path class="outline" fill="#A5ABB6" stroke="none" d="M 21.40063509461097,12.933012701892217 L 21.90063509461097,12.06698729810778 A 56.21563657230153 56.21563657230153 0 0 0 39.36310584440117,18.581317654047936 L 39.173739536636084,19.5632241676649 A 57.21563657230153 57.21563657230153 0 0 1 21.40063509461097,12.933012701892217 Z M 57.24715213023765,20.138701409468936 L 57.12063603807937,19.146736854444413 A 56.21563657230153 56.21563657230153 0 0 0 74.96216046429339,13.756524351916342 L 73.63048255730548,11.068284416188817 L 81.45666663215559,11.097315891565831 L 76.73773100694392,17.340844266219708 L 75.40605309995601,14.652604330492183 A 57.21563657230153 57.21563657230153 0 0 1 57.24715213023765,20.138701409468936"/><text text-anchor="middle" pointer-events="none" font-size="8px" fill="#000000" x="48.20348018516564" y="23.0697256275512" font-family="sans-serif">trek</text></g><g class="relationship" transform="translate(-27.504080502452446 -27.232245508444702) rotate(425.8106847273612)"><path class="outline" fill="#A5ABB6" stroke="none" d="M 25 0.5 L 37.929333048275815 0.5 L 37.929333048275815 -0.5 L 25 -0.5 Z M 58.929333048275815 0.5 L 71.85866609655163 0.5 L 71.85866609655163 3.5 L 78.85866609655163 0 L 71.85866609655163 -3.5 L 71.85866609655163 -0.5 L 58.929333048275815 -0.5 Z"/><text text-anchor="middle" pointer-events="none" font-size="8px" fill="#000000" x="48.429333048275815" y="3" font-family="sans-serif">road</text></g><g class="relationship" transform="translate(-27.504080502452446 -27.232245508444702) rotate(425.8106847273612)"><path class="outline" fill="#A5ABB6" stroke="none" d="M 21.40063509461097,-12.933012701892217 L 21.90063509461097,-12.06698729810778 A 56.21563657230153 56.21563657230153 0 0 1 27.55323666812437,-14.918834833675277 L 27.15378879059733,-15.835590740740585 A 57.21563657230153 57.21563657230153 0 0 0 21.40063509461097,-12.933012701892217 Z M 69.47989800884164,-17.18330039231104 L 69.13958116899533,-16.2429895668299 A 56.21563657230153 56.21563657230153 0 0 1 74.96216046429339,-13.756524351916342 L 73.63048255730548,-11.068284416188817 L 81.45666663215559,-11.097315891565831 L 76.73773100694392,-17.340844266219708 L 75.40605309995601,-14.652604330492183 A 57.21563657230153 57.21563657230153 0 0 0 69.47989800884164,-17.18330039231104"/><text text-anchor="middle" pointer-events="none" font-size="8px" fill="#000000" x="48.20348018516563" y="-17.0697256275512" font-family="sans-serif">twowheeler</text></g><g class="relationship" transform="translate(-27.504080502452446 -27.232245508444702) rotate(476.74462632763993)"><path class="outline" fill="#A5ABB6" stroke="none" d="M 25 0.5 L 49.09728090166122 0.5 L 49.09728090166122 -0.5 L 25 -0.5 Z M 67.09728090166122 0.5 L 91.19456180332244 0.5 L 91.19456180332244 3.5 L 98.19456180332244 0 L 91.19456180332244 -3.5 L 91.19456180332244 -0.5 L 67.09728090166122 -0.5 Z"/><text text-anchor="middle" pointer-events="none" font-size="8px" fill="#000000" x="58.09728090166122" y="3" transform="rotate(180 58.09728090166122 0)" font-family="sans-serif">trek</text></g><g class="relationship" transform="translate(-82.94344280832524 82.78310417072872) rotate(412.46307106770263)"><path class="outline" fill="#A5ABB6" stroke="none" d="M 25 0.5 L 47.78882183447171 0.5 L 47.78882183447171 -0.5 L 25 -0.5 Z M 65.78882183447172 0.5 L 88.57764366894342 0.5 L 88.57764366894342 3.5 L 95.57764366894342 0 L 88.57764366894342 -3.5 L 88.57764366894342 -0.5 L 65.78882183447172 -0.5 Z"/><text text-anchor="middle" pointer-events="none" font-size="8px" fill="#000000" x="56.78882183447171" y="3" font-family="sans-serif">trek</text></g><g class="relationship" transform="translate(89.37411293202845 -13.326049904627958) rotate(186.78516800498193)"><path class="outline" fill="#A5ABB6" stroke="none" d="M 24.018736134675446,6.953439040707552 L 24.277555179777966,5.987513214418485 A 127.03384417702725 127.03384417702725 0 0 0 34.021445339151384,8.191707603437507 L 33.839329398032675,9.174984667133415 A 128.03384417702725 128.03384417702725 0 0 1 24.018736134675446,6.953439040707552 Z M 76.79917532494738,9.80032013732351 L 76.64575618779791,8.812158931671163 A 127.03384417702725 127.03384417702725 0 0 0 86.44967418884109,6.892507877094664 L 85.75788986270574,3.9733582670004046 L 93.37632066675025,5.764869384461228 L 87.37205329035488,10.784707357220341 L 86.68026896421954,7.865557747126083 A 128.03384417702725 128.03384417702725 0 0 1 76.79917532494738,9.80032013732351"/><text text-anchor="middle" pointer-events="none" font-size="8px" fill="#000000" x="55.30011194786837" y="13.802577365486925" transform="rotate(180 55.30011194786837 10.802577365486925)" font-family="sans-serif">twowheeler</text></g><g class="relationship" transform="translate(172.17159149994546 78.28202700016905) rotate(391.6068031851481)"><path class="outline" fill="#A5ABB6" stroke="none" d="M 25 0.5 L 44.82349359797909 0.5 L 44.82349359797909 -0.5 L 25 -0.5 Z M 62.82349359797909 0.5 L 82.64698719595818 0.5 L 82.64698719595818 3.5 L 89.64698719595818 0 L 82.64698719595818 -3.5 L 82.64698719595818 -0.5 L 62.82349359797909 -0.5 Z"/><text text-anchor="middle" pointer-events="none" font-size="8px" fill="#000000" x="53.82349359797909" y="3" font-family="sans-serif">trek</text></g></g><g class="layer nodes"><g class="node" transform="translate(272.61105347260064,29.797394014102)"><circle class="outline" cx="0" cy="0" r="25" fill="#F16667" stroke="#eb2728" stroke-width="2px"/><text text-anchor="middle" pointer-events="none" font-family="sans-serif" dy="1.5625" font-size="25" fill="#FFFFFF"/><text text-anchor="middle" pointer-events="none" x="0" y="5" font-size="10px" fill="#FFFFFF" font-family="sans-serif"> Darjeeli…</text></g><g class="node" transform="translate(-9.478783077555894,178.39645011885966)"><circle class="outline" cx="0" cy="0" r="25" fill="#D9C8AE" stroke="#c0a378" stroke-width="2px"/><text text-anchor="middle" pointer-events="none" font-family="sans-serif" dy="1.5625" font-size="25" fill="#2A2C34"/><text text-anchor="middle" pointer-events="none" x="0" y="5" font-size="10px" fill="#2A2C34" font-family="sans-serif"> Sandak…</text></g><g class="node" transform="translate(172.17159149994546,78.28202700016905)"><circle class="outline" cx="0" cy="0" r="25" fill="#F16667" stroke="#eb2728" stroke-width="2px"/><text text-anchor="middle" pointer-events="none" font-family="sans-serif" dy="1.5625" font-size="25" fill="#FFFFFF"/><text text-anchor="middle" pointer-events="none" x="0" y="5" font-size="10px" fill="#FFFFFF" font-family="sans-serif"> Rimbik</text></g><g class="node" transform="translate(110.88437378404375,188.23701716213057)"><circle class="outline" cx="0" cy="0" r="25" fill="#8DCC93" stroke="#5db665" stroke-width="2px"/><text text-anchor="middle" pointer-events="none" font-family="sans-serif" dy="1.5625" font-size="25" fill="#2A2C34"/><text text-anchor="middle" pointer-events="none" x="0" y="5" font-size="10px" fill="#2A2C34" font-family="sans-serif"> BhikeB…</text></g><g class="node" transform="translate(89.37411293202845,-13.326049904627958)"><circle class="outline" cx="0" cy="0" r="25" fill="#8DCC93" stroke="#5db665" stroke-width="2px"/><text text-anchor="middle" pointer-events="none" font-family="sans-serif" dy="1.5625" font-size="25" fill="#2A2C34"/><text text-anchor="middle" pointer-events="none" x="0" y="5" font-size="10px" fill="#2A2C34" font-family="sans-serif"> Sirikhola</text></g><g class="node" transform="translate(15.052312361764738,67.50727079674553)"><circle class="outline" cx="0" cy="0" r="25" fill="#8DCC93" stroke="#5db665" stroke-width="2px"/><text text-anchor="middle" pointer-events="none" font-family="sans-serif" dy="1.5625" font-size="25" fill="#2A2C34"/><text text-anchor="middle" pointer-events="none" x="0" y="5" font-size="10px" fill="#2A2C34" font-family="sans-serif"> Gurdum</text></g><g class="node" transform="translate(269.8123847299155,138.36702654691481)"><circle class="outline" cx="0" cy="0" r="25" fill="#8DCC93" stroke="#5db665" stroke-width="2px"/><text text-anchor="middle" pointer-events="none" font-family="sans-serif" dy="1.5625" font-size="25" fill="#2A2C34"/><text text-anchor="middle" pointer-events="none" x="0" y="5" font-size="10px" fill="#2A2C34" font-family="sans-serif"> Tumbli…</text></g><g class="node" transform="translate(213.48300385975048,238.37313274663165)"><circle class="outline" cx="0" cy="0" r="25" fill="#8DCC93" stroke="#5db665" stroke-width="2px"/><text text-anchor="middle" pointer-events="none" font-family="sans-serif" dy="1.5625" font-size="25" fill="#2A2C34"/><text text-anchor="middle" pointer-events="none" x="0" y="5" font-size="10px" fill="#2A2C34" font-family="sans-serif"> Gairibus</text></g><g class="node" transform="translate(-27.504080502452446,-27.232245508444702)"><circle class="outline" cx="0" cy="0" r="25" fill="#8DCC93" stroke="#5db665" stroke-width="2px"/><text text-anchor="middle" pointer-events="none" font-family="sans-serif" dy="1.5625" font-size="25" fill="#2A2C34"/><text text-anchor="middle" pointer-events="none" x="0" y="5" font-size="10px" fill="#2A2C34" font-family="sans-serif"> Ramm…</text></g><g class="node" transform="translate(-82.94344280832524,82.78310417072872)"><circle class="outline" cx="0" cy="0" r="25" fill="#D9C8AE" stroke="#c0a378" stroke-width="2px"/><text text-anchor="middle" pointer-events="none" font-family="sans-serif" dy="1.5625" font-size="25" fill="#2A2C34"/><text text-anchor="middle" pointer-events="none" x="0" y="5" font-size="10px" fill="#2A2C34" font-family="sans-serif"> Sabargr…</text></g></g></svg>