<svg xmlns="http://www.w3.org/2000/svg" width="363.0802001953125" height="364.562255859375" viewBox="-89.75965118408203 -76.47499084472656 363.0802001953125 364.562255859375"><title>Neo4j Graph Visualization</title><desc>Created using Neo4j (http://www.neo4j.com/)</desc><g class="layer relationships"><g class="relationship" transform="translate(135.2177188789304 259.08725931032365) rotate(330.2157325576138)"><path class="outline" fill="#A5ABB6" stroke="none" d="M 21.40063509461097,12.933012701892217 L 21.90063509461097,12.06698729810778 A 57.544769002691524 57.544769002691524 0 0 0 24.13099706134675,13.289776201987259 L 23.669755787906787,14.177050955192534 A 58.544769002691524 58.544769002691524 0 0 1 21.40063509461097,12.933012701892217 Z M 74.35622711376017,15.772353720800169 L 73.95169554038057,14.857829688235121 A 57.544769002691524 57.544769002691524 0 0 0 76.25453883465926,13.777718597602345 L 74.92088924241712,11.090456279719628 L 82.74709250842594,11.11374660201781 L 78.0327382909821,17.360735021445965 L 76.69908869873996,14.673472703563249 A 58.544769002691524 58.544769002691524 0 0 1 74.35622711376017,15.772353720800169"/><text text-anchor="middle" pointer-events="none" font-size="8px" fill="#000000" x="48.847026437045635" y="23.247796006362385" font-family="sans-serif">PRODUCED</text></g><g class="relationship" transform="translate(135.2177188789304 259.08725931032365) rotate(330.2157325576138)"><path class="outline" fill="#A5ABB6" stroke="none" d="M 25 0.5 L 25.570472578724285 0.5 L 25.570472578724285 -0.5 L 25 -0.5 Z M 72.57047257872429 0.5 L 73.14094515744857 0.5 L 73.14094515744857 3.5 L 80.14094515744857 0 L 73.14094515744857 -3.5 L 73.14094515744857 -0.5 L 72.57047257872429 -0.5 Z"/><text text-anchor="middle" pointer-events="none" font-size="8px" fill="#000000" x="49.070472578724285" y="3" font-family="sans-serif">DIRECTED</text></g><g class="relationship" transform="translate(135.2177188789304 259.08725931032365) rotate(330.2157325576138)"><path class="outline" fill="#A5ABB6" stroke="none" d="M 21.40063509461097,-12.933012701892217 L 21.90063509461097,-12.06698729810778 A 57.544769002691524 57.544769002691524 0 0 1 31.865251947019,-16.616204694678068 L 31.53841480830257,-17.561285370999222 A 58.544769002691524 58.544769002691524 0 0 0 21.40063509461097,-12.933012701892217 Z M 66.29032265366057,-18.655064701965664 L 66.0235643535811,-17.691301240664757 A 57.544769002691524 57.544769002691524 0 0 1 76.25453883465926,-13.777718597602345 L 74.92088924241712,-11.090456279719628 L 82.74709250842594,-11.11374660201781 L 78.0327382909821,-17.360735021445965 L 76.69908869873996,-14.673472703563249 A 58.544769002691524 58.544769002691524 0 0 0 66.29032265366057,-18.655064701965664"/><text text-anchor="middle" pointer-events="none" font-size="8px" fill="#000000" x="48.84702643704562" y="-17.247796006362385" font-family="sans-serif">WROTE</text></g><g class="relationship" transform="translate(244.32056098867614 16.995868331463566) rotate(203.16704434778802)"><path class="outline" fill="#A5ABB6" stroke="none" d="M 24.018736134675446,6.953439040707552 L 24.277555179777966,5.987513214418485 A 99.5813717399934 99.5813717399934 0 0 0 25.301098595854743,6.255950488396522 L 25.052558013462587,7.224571972209546 A 100.5813717399934 100.5813717399934 0 0 1 24.018736134675446,6.953439040707552 Z M 71.84824512889568,7.990420676181657 L 71.63153368394025,7.0141849722528775 A 99.5813717399934 99.5813717399934 0 0 0 72.66331298354353,6.779384692089367 L 71.98209514536005,3.8577512008826718 L 79.59399410272307,5.67681531819569 L 73.57160343445484,10.674896013698294 L 72.89038559627136,7.753262522491599 A 100.5813717399934 100.5813717399934 0 0 1 71.84824512889568,7.990420676181657"/><text text-anchor="middle" pointer-events="none" font-size="8px" fill="#000000" x="48.41341863992407" y="12.867266002785655" transform="rotate(180 48.41341863992407 9.867266002785655)" font-family="sans-serif">DIRECTED</text></g><g class="relationship" transform="translate(244.32056098867614 16.995868331463566) rotate(203.16704434778802)"><path class="outline" fill="#A5ABB6" stroke="none" d="M 24.018736134675446,-6.953439040707552 L 24.277555179777966,-5.987513214418485 A 99.5813717399934 99.5813717399934 0 0 1 31.124793414300953,-7.565567302638641 L 30.934734601306914,-8.547340009329602 A 100.5813717399934 100.5813717399934 0 0 0 24.018736134675446,-6.953439040707552 Z M 65.9259339411532,-9.119998865662822 L 65.76810329176946,-8.132532670740133 A 99.5813717399934 99.5813717399934 0 0 1 72.66331298354353,-6.779384692089367 L 71.98209514536005,-3.8577512008826718 L 79.59399410272307,-5.67681531819569 L 73.57160343445484,-10.674896013698294 L 72.89038559627136,-7.753262522491599 A 100.5813717399934 100.5813717399934 0 0 0 65.9259339411532,-9.119998865662822"/><text text-anchor="middle" pointer-events="none" font-size="8px" fill="#000000" x="48.41341863992403" y="-6.867266002785655" transform="rotate(180 48.41341863992403 -9.867266002785655)" font-family="sans-serif">WROTE</text></g><g class="relationship" transform="translate(47.61689150275416 -47.47499542207228) rotate(373.12262310060487)"><path class="outline" fill="#A5ABB6" stroke="none" d="M 24.018736134675446,6.953439040707552 L 24.277555179777966,5.987513214418485 A 99.41203109735675 99.41203109735675 0 0 0 25.259833897634376,6.2453437778534635 L 25.010895736233895,7.213863159073341 A 100.41203109735675 100.41203109735675 0 0 1 24.018736134675446,6.953439040707552 Z M 71.80550326195696,7.9802794323760935 L 71.58841551974483,7.004127337576705 A 99.41203109735675 99.41203109735675 0 0 0 72.57861077810745,6.778602551109951 L 71.8974659994869,3.8569520260543 L 79.50931946634073,5.676206488504604 L 73.48680381626819,10.674136584517486 L 72.80565903764764,7.752486059461835 A 100.41203109735675 100.41203109735675 0 0 1 71.80550326195696,7.9802794323760935"/><text text-anchor="middle" pointer-events="none" font-size="8px" fill="#000000" x="48.37111203042695" y="12.861498084295903" font-family="sans-serif">DIRECTED</text></g><g class="relationship" transform="translate(47.61689150275416 -47.47499542207228) rotate(373.12262310060487)"><path class="outline" fill="#A5ABB6" stroke="none" d="M 24.018736134675446,-6.953439040707552 L 24.277555179777966,-5.987513214418485 A 99.41203109735675 99.41203109735675 0 0 1 31.083004788382365,-7.557043313373001 L 30.892642745249148,-8.538757269947993 A 100.41203109735675 100.41203109735675 0 0 0 24.018736134675446,-6.953439040707552 Z M 65.88352355359198,-9.111848527396191 L 65.72541260573057,-8.124427174494429 A 99.41203109735675 99.41203109735675 0 0 1 72.57861077810745,-6.778602551109951 L 71.8974659994869,-3.8569520260543 L 79.50931946634073,-5.676206488504604 L 73.48680381626819,-10.674136584517486 L 72.80565903764764,-7.752486059461835 A 100.41203109735675 100.41203109735675 0 0 0 65.88352355359198,-9.111848527396191"/><text text-anchor="middle" pointer-events="none" font-size="8px" fill="#000000" x="48.37111203042692" y="-6.861498084295903" font-family="sans-serif">WROTE</text></g><g class="relationship" transform="translate(-60.75965014754883 94.80518213042785) rotate(432.30155293111784)"><path class="outline" fill="#A5ABB6" stroke="none" d="M 21.40063509461097,12.933012701892217 L 21.90063509461097,12.06698729810778 A 57.14493710315776 57.14493710315776 0 0 0 31.677211168496665,16.543363230168197 L 31.348295022456238,17.487722361470432 A 58.14493710315776 58.14493710315776 0 0 1 21.40063509461097,12.933012701892217 Z M 66.09476808302955,18.585138464478845 L 65.82610041882475,17.621905529924206 A 57.14493710315776 57.14493710315776 0 0 0 75.86566897377698,13.771393298542709 L 74.53260781657863,11.083839029105707 L 82.35880579532969,11.108842976652767 L 77.64308385004142,17.354798991125374 L 76.31002269284308,14.667244721688373 A 58.14493710315776 58.14493710315776 0 0 1 66.09476808302955,18.585138464478845"/><text text-anchor="middle" pointer-events="none" font-size="8px" fill="#000000" x="48.653380707952536" y="23.19422770250928" font-family="sans-serif">WROTE</text></g><g class="relationship" transform="translate(-60.75965014754883 94.80518213042785) rotate(432.30155293111784)"><path class="outline" fill="#A5ABB6" stroke="none" d="M 25 0.5 L 25.377545686985677 0.5 L 25.377545686985677 -0.5 L 25 -0.5 Z M 72.37754568698568 0.5 L 72.75509137397135 0.5 L 72.75509137397135 3.5 L 79.75509137397135 0 L 72.75509137397135 -3.5 L 72.75509137397135 -0.5 L 72.37754568698568 -0.5 Z"/><text text-anchor="middle" pointer-events="none" font-size="8px" fill="#000000" x="48.87754568698568" y="3" font-family="sans-serif">DIRECTED</text></g><g class="relationship" transform="translate(-60.75965014754883 94.80518213042785) rotate(432.30155293111784)"><path class="outline" fill="#A5ABB6" stroke="none" d="M 21.40063509461097,-12.933012701892217 L 21.90063509461097,-12.06698729810778 A 57.14493710315776 57.14493710315776 0 0 1 23.952556020076297,-13.196241987059878 L 23.488463329270832,-14.082028628605649 A 58.14493710315776 58.14493710315776 0 0 0 21.40063509461097,-12.933012701892217 Z M 74.1538479853364,-15.68222007508004 L 73.74657702557711,-14.768912697831425 A 57.14493710315776 57.14493710315776 0 0 1 75.86566897377698,-13.771393298542709 L 74.53260781657863,-11.083839029105707 L 82.35880579532969,-11.108842976652767 L 77.64308385004142,-17.354798991125374 L 76.31002269284308,-14.667244721688373 A 58.14493710315776 58.14493710315776 0 0 0 74.1538479853364,-15.68222007508004"/><text text-anchor="middle" pointer-events="none" font-size="8px" fill="#000000" x="48.653380707952536" y="-17.19422770250928" font-family="sans-serif">PRODUCED</text></g></g><g class="layer nodes"><g class="node" transform="translate(135.2177188789304,259.08725931032365)"><circle class="outline" cx="0" cy="0" r="25" fill="#F79767" stroke="#f36924" stroke-width="2px"/><text text-anchor="middle" pointer-events="none" font-family="sans-serif" dy="1.5625" font-size="25" fill="#FFFFFF"/><text text-anchor="middle" pointer-events="none" x="0" y="5" font-size="10px" fill="#FFFFFF" font-family="sans-serif"> Cameron</text></g><g class="node" transform="translate(226.46974307885674,206.86000179073272)"><circle class="outline" cx="0" cy="0" r="25" fill="#57C7E3" stroke="#23b3d7" stroke-width="2px"/><text text-anchor="middle" pointer-events="none" font-family="sans-serif" dy="1.5625" font-size="25" fill="#2A2C34"/><text text-anchor="middle" pointer-events="none" font-family="sans-serif" dy="1.5625" font-size="25" fill="#2A2C34"/><text text-anchor="middle" pointer-events="none" x="0" y="0" font-size="10px" fill="#2A2C34" font-family="sans-serif"> Jerry</text><text text-anchor="middle" pointer-events="none" x="0" y="10" font-size="10px" fill="#2A2C34" font-family="sans-serif"> Maguire</text></g><g class="node" transform="translate(244.32056098867614,16.995868331463566)"><circle class="outline" cx="0" cy="0" r="25" fill="#F79767" stroke="#f36924" stroke-width="2px"/><text text-anchor="middle" pointer-events="none" font-family="sans-serif" dy="1.5625" font-size="25" fill="#FFFFFF"/><text text-anchor="middle" pointer-events="none" font-family="sans-serif" dy="1.5625" font-size="25" fill="#FFFFFF"/><text text-anchor="middle" pointer-events="none" x="0" y="0" font-size="10px" fill="#FFFFFF" font-family="sans-serif"> Lana</text><text text-anchor="middle" pointer-events="none" x="0" y="10" font-size="10px" fill="#FFFFFF" font-family="sans-serif"> Wacho…</text></g><g class="node" transform="translate(148.76123386167856,-23.89586651304109)"><circle class="outline" cx="0" cy="0" r="25" fill="#57C7E3" stroke="#23b3d7" stroke-width="2px"/><text text-anchor="middle" pointer-events="none" font-family="sans-serif" dy="1.5625" font-size="25" fill="#2A2C34"/><text text-anchor="middle" pointer-events="none" font-family="sans-serif" dy="1.5625" font-size="25" fill="#2A2C34"/><text text-anchor="middle" pointer-events="none" x="0" y="0" font-size="10px" fill="#2A2C34" font-family="sans-serif"> Speed</text><text text-anchor="middle" pointer-events="none" x="0" y="10" font-size="10px" fill="#2A2C34" font-family="sans-serif"> Racer</text></g><g class="node" transform="translate(47.61689150275416,-47.47499542207228)"><circle class="outline" cx="0" cy="0" r="25" fill="#F79767" stroke="#f36924" stroke-width="2px"/><text text-anchor="middle" pointer-events="none" font-family="sans-serif" dy="1.5625" font-size="25" fill="#FFFFFF"/><text text-anchor="middle" pointer-events="none" font-family="sans-serif" dy="1.5625" font-size="25" fill="#FFFFFF"/><text text-anchor="middle" pointer-events="none" x="0" y="0" font-size="10px" fill="#FFFFFF" font-family="sans-serif"> Lilly</text><text text-anchor="middle" pointer-events="none" x="0" y="10" font-size="10px" fill="#FFFFFF" font-family="sans-serif"> Wacho…</text></g><g class="node" transform="translate(-60.75965014754883,94.80518213042785)"><circle class="outline" cx="0" cy="0" r="25" fill="#F79767" stroke="#f36924" stroke-width="2px"/><text text-anchor="middle" pointer-events="none" font-family="sans-serif" dy="1.5625" font-size="25" fill="#FFFFFF"/><text text-anchor="middle" pointer-events="none" font-family="sans-serif" dy="1.5625" font-size="25" fill="#FFFFFF"/><text text-anchor="middle" pointer-events="none" x="0" y="0" font-size="10px" fill="#FFFFFF" font-family="sans-serif"> Nancy</text><text text-anchor="middle" pointer-events="none" x="0" y="10" font-size="10px" fill="#FFFFFF" font-family="sans-serif"> Meyers</text></g><g class="node" transform="translate(-28.913343932036515,194.6021858389406)"><circle class="outline" cx="0" cy="0" r="25" fill="#57C7E3" stroke="#23b3d7" stroke-width="2px"/><text text-anchor="middle" pointer-events="none" font-family="sans-serif" dy="1.5625" font-size="25" fill="#2A2C34"/><text text-anchor="middle" pointer-events="none" x="0" y="5" font-size="10px" fill="#2A2C34" font-family="sans-serif"> Someth…</text></g></g></svg>